<svg xmlns="http://www.w3.org/2000/svg" style="display: none;">

    <symbol id="icon-logo" viewBox="0 0 50 50">
      <path d="M 50.0625 10.4375 C 48.214844 11.257813 46.234375 11.808594 44.152344 12.058594 C 46.277344 10.785156 47.910156 8.769531 48.675781 6.371094 C 46.691406 7.546875 44.484375 8.402344 42.144531 8.863281 C 40.269531 6.863281 37.597656 5.617188 34.640625 5.617188 C 28.960938 5.617188 24.355469 10.21875 24.355469 15.898438 C 24.355469 16.703125 24.449219 17.488281 24.625 18.242188 C 16.078125 17.8125 8.503906 13.71875 3.429688 7.496094 C 2.542969 9.019531 2.039063 10.785156 2.039063 12.667969 C 2.039063 16.234375 3.851563 19.382813 6.613281 21.230469 C 4.925781 21.175781 3.339844 20.710938 1.953125 19.941406 C 1.953125 19.984375 1.953125 20.027344 1.953125 20.070313 C 1.953125 25.054688 5.5 29.207031 10.199219 30.15625 C 9.339844 30.390625 8.429688 30.515625 7.492188 30.515625 C 6.828125 30.515625 6.183594 30.453125 5.554688 30.328125 C 6.867188 34.410156 10.664063 37.390625 15.160156 37.472656 C 11.644531 40.230469 7.210938 41.871094 2.390625 41.871094 C 1.558594 41.871094 0.742188 41.824219 -0.0585938 41.726563 C 4.488281 44.648438 9.894531 46.347656 15.703125 46.347656 C 34.617188 46.347656 44.960938 30.679688 44.960938 17.09375 C 44.960938 16.648438 44.949219 16.199219 44.933594 15.761719 C 46.941406 14.3125 48.683594 12.5 50.0625 10.4375 Z"/>
    </symbol>

    <symbol id="icon-home" viewBox="0 0 50 50">
     <path d="M 24.962891 1.0546875 A 1.0001 1.0001 0 0 0 24.384766 1.2636719 L 1.3847656 19.210938 A 1.0005659 1.0005659 0 0 0 2.6152344 20.789062 L 4 19.708984 L 4 46 A 1.0001 1.0001 0 0 0 5 47 L 18.832031 47 A 1.0001 1.0001 0 0 0 19.158203 47 L 30.832031 47 A 1.0001 1.0001 0 0 0 31.158203 47 L 45 47 A 1.0001 1.0001 0 0 0 46 46 L 46 19.708984 L 47.384766 20.789062 A 1.0005657 1.0005657 0 1 0 48.615234 19.210938 L 41 13.269531 L 41 6 L 35 6 L 35 8.5859375 L 25.615234 1.2636719 A 1.0001 1.0001 0 0 0 24.962891 1.0546875 z M 25 3.3222656 L 44 18.148438 L 44 45 L 32 45 L 32 26 L 18 26 L 18 45 L 6 45 L 6 18.148438 L 25 3.3222656 z M 37 8 L 39 8 L 39 11.708984 L 37 10.146484 L 37 8 z M 20 28 L 30 28 L 30 45 L 20 45 L 20 28 z"/>
       </symbol>

    <symbol id="icon-explore" viewBox="0 0 490 490">
   <path d="M64.333,490h58.401l33.878-137.69h122.259L245.39,490h58.401l33.878-137.69h119.92v-48.162h-108.24l29.2-117.324h79.04
	v-48.162H390.23L424.108,0H365.31l-33.878,138.661H208.79L242.668,0h-58.415l-33.864,138.661H32.411v48.162h106.298l-28.818,117.324
	h-77.48v48.162h65.8L64.333,490z M197.11,186.824h122.642l-29.2,117.324H168.292L197.11,186.824z"/>         
    </symbol>


    <symbol id="icon-notifications" viewBox="0 0 331.783 331.783">
 <path d="M309.28,215.116h-29.872v-80.847c0-41.648-27.425-77.007-65.162-88.979C213.534,20.198,192.914,0,167.652,0h-0.791
		c-24.983,0-45.436,19.753-46.572,44.46c-39.15,11.092-67.915,47.154-67.915,89.809v80.847H22.503v76.667h96.486
		c3.607,22.64,23.263,40,46.902,40s43.295-17.36,46.902-40h96.486v-76.667H309.28z M166.861,15h0.791
		c15.809,0,28.946,11.659,31.264,26.83c-4.197-0.58-8.481-0.887-12.835-0.887H145.7c-3.392,0-6.742,0.187-10.041,0.542
		C138.123,26.484,151.173,15,166.861,15z M165.891,316.782c-15.339,0-28.221-10.685-31.617-25h63.234
		C194.112,306.097,181.23,316.782,165.891,316.782z M294.28,276.782H37.503v-46.667h29.872v-95.847
		c0-43.189,35.137-78.326,78.326-78.326h40.381c43.189,0,78.326,35.137,78.326,78.326v95.847h29.872V276.782z"/>
    </symbol>

 <symbol id="icon-messages" viewBox="0 0 50.215 50.215">
    <path d="M25.108,0C11.357,0,0.171,9.396,0.171,20.946c0,6.226,3.339,12.146,9.01,16.104c-0.18,3.082-2.679,7.061-3.664,8.358
		c-0.686,0.903-0.803,2.121-0.301,3.14c0.506,1.02,1.545,1.666,2.683,1.666c6.839,0,14.323-5.353,17.957-8.33
		c13.403-0.334,24.188-9.599,24.188-20.938C50.044,9.396,38.858,0,25.108,0z M25.12,35.906h-0.003
		c-0.82-0.057-1.662,0.168-2.291,0.707c-2.559,2.191-5.783,4.473-8.912,5.96c0.938-2.38,1.565-5.128,1.1-7.738
		c-0.15-0.846-0.659-1.587-1.395-2.032c-4.742-2.877-7.463-7.199-7.463-11.856c0-8.249,8.502-14.961,18.952-14.961
		c10.449,0,18.951,6.712,18.951,14.961S35.56,35.906,25.12,35.906z"/>
</symbol>

<symbol id="icon-bookmark" viewBox="0 0 512 512">
<path d="M62.061,0v512h48.427L256,366.488L401.512,512h48.427V0H62.061z M403.394,448.057L256,300.663L108.606,448.057V46.545
			h294.788V448.057z"/>
</symbol>

<symbol id="icon-list" viewBox="0 0 492.308 492.308">
<path d="M358.188,85.644V46.269h-56.74C296.779,20.01,273.784,0,246.197,0c-27.582,0-50.577,20.01-55.245,46.269h-56.745v39.375
			H43.63v406.663h405.048V85.644H358.188z M153.899,85.644V65.962h55.88v-9.846c0-20.087,16.337-36.423,36.418-36.423
			s36.423,16.337,36.423,36.423v9.846h55.875v19.683v40.74H153.899V85.644z M428.986,472.615H63.322V105.337h70.885v40.74h223.981
			v-40.74h70.798V472.615z"/>
</symbol>

<symbol id="icon-profile" viewBox="0 0 45.916 45.916">
<path d="M30.061,18.237c2.127-1.916,3.476-4.683,3.476-7.772C33.536,4.684,28.85,0,23.07,0C17.29,0,12.604,4.685,12.604,10.465
			c0,3.085,1.343,5.85,3.467,7.766c-5.441,0.422-9.74,4.928-9.779,10.477L6.224,40.154c-0.01,1.525,0.59,2.99,1.665,4.072
			c1.075,1.08,2.537,1.689,4.062,1.689h10.151h11.794c3.15,0,5.709-2.543,5.729-5.693l0.068-11.361
			c0.021-2.826-1.089-5.538-3.083-7.544C34.851,19.543,32.526,18.465,30.061,18.237z"/>

</symbol>

<symbol id="icon-more" viewBox="0 0 330 330">
<path id="XMLID_22_" d="M165,0C74.019,0,0,74.019,0,165s74.019,165,165,165s165-74.019,165-165S255.981,0,165,0z M85,190
	c-13.785,0-25-11.215-25-25s11.215-25,25-25s25,11.215,25,25S98.785,190,85,190z M165,190c-13.785,0-25-11.215-25-25
	s11.215-25,25-25s25,11.215,25,25S178.785,190,165,190z M245,190c-13.785,0-25-11.215-25-25s11.215-25,25-25
	c13.785,0,25,11.215,25,25S258.785,190,245,190z"/>
</symbol>


<symbol id="icon-top"  viewBox="0 0 48 48">
<path d="M 23.976562 3.9785156 A 1.50015 1.50015 0 0 0 22.5 5.5 L 22.5 8.5 A 1.50015 1.50015 0 1 0 25.5 8.5 L 25.5 5.5 A 1.50015 1.50015 0 0 0 23.976562 3.9785156 z M 10.902344 9.4042969 A 1.50015 1.50015 0 0 0 9.8574219 11.980469 L 11.978516 14.101562 A 1.5012202 1.5012202 0 0 0 14.101562 11.978516 L 11.980469 9.8574219 A 1.50015 1.50015 0 0 0 10.902344 9.4042969 z M 37.050781 9.4042969 A 1.50015 1.50015 0 0 0 36.019531 9.8574219 L 33.898438 11.978516 A 1.5012202 1.5012202 0 0 0 36.021484 14.101562 L 38.142578 11.980469 A 1.50015 1.50015 0 0 0 37.050781 9.4042969 z M 24 13 C 17.942632 13 13 17.942636 13 24 C 13 30.057364 17.942632 35 24 35 C 30.057368 35 35 30.057364 35 24 C 35 17.942636 30.057368 13 24 13 z M 24 16 C 28.436049 16 32 19.563954 32 24 C 32 28.436046 28.436049 32 24 32 C 19.563951 32 16 28.436046 16 24 C 16 19.563954 19.563951 16 24 16 z M 5.5 22.5 A 1.50015 1.50015 0 1 0 5.5 25.5 L 8.5 25.5 A 1.50015 1.50015 0 1 0 8.5 22.5 L 5.5 22.5 z M 39.5 22.5 A 1.50015 1.50015 0 1 0 39.5 25.5 L 42.5 25.5 A 1.50015 1.50015 0 1 0 42.5 22.5 L 39.5 22.5 z M 13.009766 33.445312 A 1.50015 1.50015 0 0 0 11.978516 33.898438 L 9.8574219 36.019531 A 1.501221 1.501221 0 1 0 11.980469 38.142578 L 14.101562 36.021484 A 1.50015 1.50015 0 0 0 13.009766 33.445312 z M 34.943359 33.445312 A 1.50015 1.50015 0 0 0 33.898438 36.021484 L 36.019531 38.142578 A 1.5012209 1.5012209 0 1 0 38.142578 36.019531 L 36.021484 33.898438 A 1.50015 1.50015 0 0 0 34.943359 33.445312 z M 23.976562 37.978516 A 1.50015 1.50015 0 0 0 22.5 39.5 L 22.5 42.5 A 1.50015 1.50015 0 1 0 25.5 42.5 L 25.5 39.5 A 1.50015 1.50015 0 0 0 23.976562 37.978516 z"/>    
</symbol>

<symbol id="icon-gif"  viewBox="0 0 30 30">
 <path d="M 7 2 C 5.895 2 5 2.895 5 4 L 5 26 C 5 27.105 5.895 28 7 28 L 23 28 C 24.105 28 25 27.105 25 26 L 25 9.5 C 25 9.235 24.895031 8.9809688 24.707031 8.7929688 L 18.207031 2.2929688 C 18.019031 2.1049688 17.765 2 17.5 2 L 7 2 z M 17 3.9042969 L 23.095703 10 L 18 10 C 17.448 10 17 9.552 17 9 L 17 3.9042969 z M 10 10 C 11.105 10 12 10.895 12 12 C 12 13.105 11.105 14 10 14 C 8.895 14 8 13.105 8 12 C 8 10.895 8.895 10 10 10 z M 12 18.001953 C 12.61925 18.001953 13.238437 18.238437 13.710938 18.710938 L 15 20 L 15.015625 19.984375 L 16.185547 21.15625 C 16.607547 21.57825 17.288937 21.574344 17.710938 21.152344 C 18.132938 20.730344 18.132938 20.044094 17.710938 19.621094 L 16.570312 18.480469 C 17.517285 17.782223 18.853612 17.853612 19.710938 18.710938 L 22 21 L 22 24 L 8 24 L 8 21 L 10.289062 18.710938 C 10.761563 18.238437 11.38075 18.001953 12 18.001953 z"/>
</symbol>


<symbol id="icon-media"  viewBox="0 0 50 50">
<path d="M 16 3 C 8.8324839 3 3 8.8324839 3 16 L 3 34 C 3 41.167516 8.8324839 47 16 47 L 34 47 C 41.167516 47 47 41.167516 47 34 L 47 16 C 47 8.8324839 41.167516 3 34 3 L 16 3 z M 16 5 L 34 5 C 40.086484 5 45 9.9135161 45 16 L 45 34 C 45 40.086484 40.086484 45 34 45 L 16 45 C 9.9135161 45 5 40.086484 5 34 L 5 16 C 5 9.9135161 9.9135161 5 16 5 z M 37 11 A 2 2 0 0 0 35 13 A 2 2 0 0 0 37 15 A 2 2 0 0 0 39 13 A 2 2 0 0 0 37 11 z M 25 14 C 18.936712 14 14 18.936712 14 25 C 14 31.063288 18.936712 36 25 36 C 31.063288 36 36 31.063288 36 25 C 36 18.936712 31.063288 14 25 14 z M 25 16 C 29.982407 16 34 20.017593 34 25 C 34 29.982407 29.982407 34 25 34 C 20.017593 34 16 29.982407 16 25 C 16 20.017593 20.017593 16 25 16 z"/>
</symbol>


<symbol id="icon-poll"  viewBox="0 0 50 50">
<path d="M 0 9 L 0 11 L 50 11 L 50 9 Z M 0 24 L 0 26 L 50 26 L 50 24 Z M 0 39 L 0 41 L 50 41 L 50 39 Z"/>
</symbol>


<symbol id="icon-emoji"   viewBox="0 0 50 50">
<path d="M 24.71875 2 C 19.671875 2 15.683594 3.5 13 6.25 C 10.316406 9 9 12.925781 9 17.59375 C 9 19.527344 9.859375 23.265625 10.5625 25.46875 C 10.269531 25.71875 9.972656 25.878906 9.6875 26.3125 C 9.207031 27.046875 8.855469 28.074219 9 29.3125 C 9.421875 32.886719 11.664063 34.164063 12.40625 34.53125 C 12.691406 36.203125 13.554688 38.265625 14.96875 40.375 C 16.484375 42.636719 18.578125 44.808594 21.125 46.03125 C 21.171875 46.054688 21.203125 46.101563 21.25 46.125 C 22.167969 47.222656 23.464844 48 25 48 C 26.535156 48 27.832031 47.222656 28.75 46.125 C 28.796875 46.101563 28.828125 46.054688 28.875 46.03125 C 31.414063 44.804688 33.464844 42.636719 34.96875 40.375 C 36.367188 38.269531 37.214844 36.195313 37.5 34.53125 C 38.234375 34.183594 40.542969 32.941406 40.96875 29.34375 C 41.113281 28.101563 40.734375 27.050781 40.25 26.3125 C 39.960938 25.875 39.667969 25.722656 39.375 25.46875 C 40.078125 23.238281 41 19.785156 41 16 C 41 14.261719 40.644531 11.882813 39.46875 9.8125 C 38.363281 7.867188 36.363281 6.257813 33.53125 6.0625 C 32.246094 4.113281 29.46875 2 24.71875 2 Z M 24.71875 4 C 29.214844 4 31.367188 6.082031 32.125 7.46875 C 32.296875 7.792969 32.632813 7.996094 33 8 C 35.441406 8 36.789063 9.179688 37.71875 10.8125 C 38.648438 12.445313 39 14.558594 39 16 C 39 19.707031 37.992188 23.355469 37.3125 25.4375 C 37.175781 25.878906 37.355469 26.355469 37.75 26.59375 C 37.921875 26.699219 38.316406 27.011719 38.59375 27.4375 C 38.871094 27.863281 39.058594 28.375 38.96875 29.125 C 38.585938 32.347656 36.34375 32.96875 36.34375 32.96875 C 35.96875 33.089844 35.699219 33.421875 35.65625 33.8125 C 35.539063 34.917969 34.703125 37.160156 33.3125 39.25 C 31.921875 41.339844 30.011719 43.332031 27.90625 44.3125 C 27.742188 44.386719 27.601563 44.507813 27.5 44.65625 C 26.960938 45.460938 26.046875 46 25 46 C 23.953125 46 23.039063 45.460938 22.5 44.65625 C 22.398438 44.507813 22.257813 44.386719 22.09375 44.3125 C 19.980469 43.332031 18.058594 41.339844 16.65625 39.25 C 15.253906 37.160156 14.394531 34.914063 14.28125 33.8125 C 14.234375 33.441406 13.980469 33.125 13.625 33 C 13.625 33 11.378906 32.324219 11 29.09375 C 10.910156 28.339844 11.101563 27.820313 11.375 27.40625 C 11.648438 26.992188 12.007813 26.707031 12.1875 26.59375 C 12.597656 26.351563 12.78125 25.855469 12.625 25.40625 C 12.019531 23.660156 11 18.875 11 17.59375 C 11 13.300781 12.1875 9.929688 14.4375 7.625 C 16.6875 5.320313 20.0625 4 24.71875 4 Z M 32.3125 11.625 C 32.28125 11.632813 32.25 11.644531 32.21875 11.65625 C 32.199219 11.664063 32.175781 11.675781 32.15625 11.6875 C 32.078125 11.710938 32.007813 11.742188 31.9375 11.78125 C 31.917969 11.789063 31.894531 11.800781 31.875 11.8125 C 31.875 11.824219 31.875 11.832031 31.875 11.84375 C 31.84375 11.863281 31.8125 11.882813 31.78125 11.90625 C 31.757813 11.925781 31.738281 11.945313 31.71875 11.96875 C 31.707031 11.988281 31.695313 12.011719 31.6875 12.03125 C 31.640625 12.089844 31.597656 12.152344 31.5625 12.21875 C 31.5625 12.21875 31.5625 12.25 31.5625 12.25 C 31.550781 12.269531 31.539063 12.292969 31.53125 12.3125 C 31.449219 12.46875 31.054688 13.164063 30 14.03125 C 28.820313 15 26.945313 16 24 16 C 22.125 16 19.773438 16.015625 17.75 16.75 C 16.738281 17.117188 15.792969 17.683594 15.09375 18.5625 C 14.394531 19.441406 14 20.609375 14 22 C 13.996094 22.359375 14.183594 22.695313 14.496094 22.878906 C 14.808594 23.058594 15.191406 23.058594 15.503906 22.878906 C 15.816406 22.695313 16.003906 22.359375 16 22 C 16 20.972656 16.25 20.324219 16.65625 19.8125 C 17.0625 19.300781 17.664063 18.90625 18.4375 18.625 C 19.984375 18.066406 22.15625 18 24 18 C 27.40625 18 29.800781 16.8125 31.28125 15.59375 C 31.777344 15.1875 32.152344 14.78125 32.46875 14.40625 C 33.4375 15.964844 35 18.90625 35 22 C 34.996094 22.359375 35.183594 22.695313 35.496094 22.878906 C 35.808594 23.058594 36.191406 23.058594 36.503906 22.878906 C 36.816406 22.695313 37.003906 22.359375 37 22 C 37 17.03125 33.992188 12.960938 33.46875 12.28125 C 33.46875 12.269531 33.46875 12.261719 33.46875 12.25 C 33.445313 12.21875 33.386719 12.105469 33.375 12.09375 C 33.355469 12.070313 33.335938 12.050781 33.3125 12.03125 C 33.3125 12.03125 33.28125 12 33.28125 12 C 33.273438 11.980469 33.261719 11.957031 33.25 11.9375 C 33.238281 11.9375 33.230469 11.9375 33.21875 11.9375 C 33.140625 11.847656 33.042969 11.773438 32.9375 11.71875 C 32.925781 11.707031 32.917969 11.699219 32.90625 11.6875 C 32.886719 11.675781 32.863281 11.664063 32.84375 11.65625 C 32.832031 11.65625 32.824219 11.65625 32.8125 11.65625 C 32.792969 11.644531 32.769531 11.632813 32.75 11.625 C 32.730469 11.625 32.707031 11.625 32.6875 11.625 C 32.675781 11.625 32.667969 11.625 32.65625 11.625 C 32.636719 11.625 32.613281 11.625 32.59375 11.625 C 32.582031 11.625 32.574219 11.625 32.5625 11.625 C 32.542969 11.625 32.519531 11.625 32.5 11.625 C 32.488281 11.625 32.480469 11.625 32.46875 11.625 C 32.449219 11.625 32.425781 11.625 32.40625 11.625 C 32.375 11.625 32.34375 11.625 32.3125 11.625 Z M 19.5 27 C 18.671875 27 18 27.671875 18 28.5 C 18 29.328125 18.671875 30 19.5 30 C 20.328125 30 21 29.328125 21 28.5 C 21 27.671875 20.328125 27 19.5 27 Z M 30.5 27 C 29.671875 27 29 27.671875 29 28.5 C 29 29.328125 29.671875 30 30.5 30 C 31.328125 30 32 29.328125 32 28.5 C 32 27.671875 31.328125 27 30.5 27 Z"/>
</symbol>


<symbol id="icon-scheduale"  viewBox="0 0 50 50">
<path d="M 5 4 A 1.0001 1.0001 0 0 0 4 5 L 4 45 A 1.0001 1.0001 0 0 0 5 46 L 45 46 A 1.0001 1.0001 0 0 0 46 45 L 46 5 A 1.0001 1.0001 0 0 0 45 4 L 5 4 z M 6 6 L 44 6 L 44 44 L 6 44 L 6 6 z M 12.818359 9 C 10.173674 9 8 11.15213 8 13.789062 C 8 18.977762 13.773838 21.456801 15.363281 22.771484 L 16 23.296875 L 16.636719 22.771484 C 18.226002 21.456933 24 18.978589 24 13.789062 C 24 11.152131 21.826326 9 19.181641 9 C 17.920442 9 16.861631 9.5874985 16 10.382812 C 15.138369 9.5874985 14.079558 9 12.818359 9 z M 26 9 L 26 11 L 42 11 L 42 9 L 26 9 z M 12.818359 11 C 13.808759 11 14.665646 11.500441 15.169922 12.253906 L 16 13.494141 L 16.830078 12.253906 C 17.334354 11.500441 18.191241 11 19.181641 11 C 20.752955 11 22 12.241996 22 13.789062 C 22 17.163334 18.330725 19.036834 16 20.761719 C 13.66938 19.036773 10 17.16225 10 13.789062 C 10 12.241998 11.247045 11 12.818359 11 z M 26 15 L 26 17 L 42 17 L 42 15 L 26 15 z M 26 21 L 26 23 L 42 23 L 42 21 L 26 21 z M 8 27 L 8 29 L 24 29 L 24 27 L 8 27 z M 26 27 L 26 29 L 42 29 L 42 27 L 26 27 z M 8 33 L 8 35 L 24 35 L 24 33 L 8 33 z M 26 33 L 26 35 L 42 35 L 42 33 L 26 33 z M 8 39 L 8 41 L 24 41 L 24 39 L 8 39 z M 26 39 L 26 41 L 42 41 L 42 39 L 26 39 z"/>
</symbol>

<symbol id="icon-moreInfo"  viewBox="0 0 50 50">
<path d="M 25 2 C 12.309295 2 2 12.309295 2 25 C 2 37.690705 12.309295 48 25 48 C 37.690705 48 48 37.690705 48 25 C 48 12.309295 37.690705 2 25 2 z M 25 4 C 36.609824 4 46 13.390176 46 25 C 46 36.609824 36.609824 46 25 46 C 13.390176 46 4 36.609824 4 25 C 4 13.390176 13.390176 4 25 4 z M 25 11 A 3 3 0 0 0 22 14 A 3 3 0 0 0 25 17 A 3 3 0 0 0 28 14 A 3 3 0 0 0 25 11 z M 21 21 L 21 23 L 22 23 L 23 23 L 23 36 L 22 36 L 21 36 L 21 38 L 22 38 L 23 38 L 27 38 L 28 38 L 29 38 L 29 36 L 28 36 L 27 36 L 27 21 L 26 21 L 22 21 L 21 21 z"/>
</symbol>


<symbol id="icon-comment" viewBox="0 0 50 50">
<path d="M 25 4.0625 C 12.414063 4.0625 2.0625 12.925781 2.0625 24 C 2.0625 30.425781 5.625 36.09375 11 39.71875 C 10.992188 39.933594 11 40.265625 10.71875 41.3125 C 10.371094 42.605469 9.683594 44.4375 8.25 46.46875 L 7.21875 47.90625 L 9 47.9375 C 15.175781 47.964844 18.753906 43.90625 19.3125 43.25 C 21.136719 43.65625 23.035156 43.9375 25 43.9375 C 37.582031 43.9375 47.9375 35.074219 47.9375 24 C 47.9375 12.925781 37.582031 4.0625 25 4.0625 Z M 25 5.9375 C 36.714844 5.9375 46.0625 14.089844 46.0625 24 C 46.0625 33.910156 36.714844 42.0625 25 42.0625 C 22.996094 42.0625 21.050781 41.820313 19.21875 41.375 L 18.65625 41.25 L 18.28125 41.71875 C 18.28125 41.71875 15.390625 44.976563 10.78125 45.75 C 11.613281 44.257813 12.246094 42.871094 12.53125 41.8125 C 12.929688 40.332031 12.9375 39.3125 12.9375 39.3125 L 12.9375 38.8125 L 12.5 38.53125 C 7.273438 35.21875 3.9375 29.941406 3.9375 24 C 3.9375 14.089844 13.28125 5.9375 25 5.9375 Z"/>
</symbol>

<symbol id="icon-retweet" viewBox="0 0 50 50">
<path d="M 20 4 C 15.054688 4 11 8.054688 11 13 L 11 35.5625 L 5.71875 30.28125 L 4.28125 31.71875 L 11.28125 38.71875 L 12 39.40625 L 12.71875 38.71875 L 19.71875 31.71875 L 18.28125 30.28125 L 13 35.5625 L 13 13 C 13 9.144531 16.144531 6 20 6 L 31 6 L 31 4 Z M 38 10.59375 L 37.28125 11.28125 L 30.28125 18.28125 L 31.71875 19.71875 L 37 14.4375 L 37 37 C 37 40.855469 33.855469 44 30 44 L 19 44 L 19 46 L 30 46 C 34.945313 46 39 41.945313 39 37 L 39 14.4375 L 44.28125 19.71875 L 45.71875 18.28125 L 38.71875 11.28125 Z"/>
</symbol>

<symbol id="icon-like" viewBox="0 0 50 50">
<path d="M 42.875 8.625 C 42.84375 8.632813 42.8125 8.644531 42.78125 8.65625 C 42.519531 8.722656 42.292969 8.890625 42.15625 9.125 L 21.71875 40.8125 L 7.65625 28.125 C 7.410156 27.8125 7 27.675781 6.613281 27.777344 C 6.226563 27.878906 5.941406 28.203125 5.882813 28.597656 C 5.824219 28.992188 6.003906 29.382813 6.34375 29.59375 L 21.25 43.09375 C 21.46875 43.285156 21.761719 43.371094 22.050781 43.328125 C 22.339844 43.285156 22.59375 43.121094 22.75 42.875 L 43.84375 10.1875 C 44.074219 9.859375 44.085938 9.425781 43.875 9.085938 C 43.664063 8.746094 43.269531 8.566406 42.875 8.625 Z"/>
</symbol>
<symbol id="icon-share" viewBox="0 0 50 50">
<path d="M 20 8 C 13.539063 8 8.367188 13.109375 8.09375 19.5 C 3.417969 20.777344 0 24.996094 0 30 C 0 36.046875 4.953125 41 11 41 L 41 41 C 45.945313 41 50 36.945313 50 32 C 50 28.101563 47.402344 24.792969 43.90625 23.625 C 43.695313 17.761719 38.910156 13 33 13 C 31.960938 13 30.992188 13.257813 30.03125 13.53125 C 27.882813 10.261719 24.21875 8 20 8 Z M 20 10 C 23.726563 10 26.992188 12.09375 28.71875 15.09375 L 29.15625 15.8125 L 29.9375 15.53125 C 30.9375 15.167969 31.910156 15 33 15 C 37.953125 15 42 19.046875 42 24 L 42 25.09375 L 42.78125 25.28125 C 45.714844 25.972656 48 28.769531 48 32 C 48 35.855469 44.855469 39 41 39 L 11 39 C 6.046875 39 2 34.953125 2 30 C 2 25.671875 5.058594 21.996094 9.1875 21.1875 L 10 21.03125 L 10 20 C 10 14.433594 14.433594 10 20 10 Z M 25 18.59375 L 24.28125 19.28125 L 18.28125 25.28125 L 19.71875 26.71875 L 24 22.4375 L 24 34 L 26 34 L 26 22.4375 L 30.28125 26.71875 L 31.71875 25.28125 L 25.71875 19.28125 Z"/>
</symbol>


<symbol id="icon-search" viewBox="0 0 50 50">
<path d="M 21 3 C 11.621094 3 4 10.621094 4 20 C 4 29.378906 11.621094 37 21 37 C 24.710938 37 28.140625 35.804688 30.9375 33.78125 L 44.09375 46.90625 L 46.90625 44.09375 L 33.90625 31.0625 C 36.460938 28.085938 38 24.222656 38 20 C 38 10.621094 30.378906 3 21 3 Z M 21 5 C 29.296875 5 36 11.703125 36 20 C 36 28.296875 29.296875 35 21 35 C 12.703125 35 6 28.296875 6 20 C 6 11.703125 12.703125 5 21 5 Z"/>
</symbol>
<symbol id="icon-settings" viewBox="0 0 50 50">
<path d="M 22.205078 2 A 1.0001 1.0001 0 0 0 21.21875 2.8378906 L 20.246094 8.7929688 C 19.076509 9.1331971 17.961243 9.5922728 16.910156 10.164062 L 11.996094 6.6542969 A 1.0001 1.0001 0 0 0 10.708984 6.7597656 L 6.8183594 10.646484 A 1.0001 1.0001 0 0 0 6.7070312 11.927734 L 10.164062 16.873047 C 9.583454 17.930271 9.1142098 19.051824 8.765625 20.232422 L 2.8359375 21.21875 A 1.0001 1.0001 0 0 0 2.0019531 22.205078 L 2.0019531 27.705078 A 1.0001 1.0001 0 0 0 2.8261719 28.691406 L 8.7597656 29.742188 C 9.1064607 30.920739 9.5727226 32.043065 10.154297 33.101562 L 6.6542969 37.998047 A 1.0001 1.0001 0 0 0 6.7597656 39.285156 L 10.648438 43.175781 A 1.0001 1.0001 0 0 0 11.927734 43.289062 L 16.882812 39.820312 C 17.936999 40.39548 19.054994 40.857928 20.228516 41.201172 L 21.21875 47.164062 A 1.0001 1.0001 0 0 0 22.205078 48 L 27.705078 48 A 1.0001 1.0001 0 0 0 28.691406 47.173828 L 29.751953 41.1875 C 30.920633 40.838997 32.033372 40.369697 33.082031 39.791016 L 38.070312 43.291016 A 1.0001 1.0001 0 0 0 39.351562 43.179688 L 43.240234 39.287109 A 1.0001 1.0001 0 0 0 43.34375 37.996094 L 39.787109 33.058594 C 40.355783 32.014958 40.813915 30.908875 41.154297 29.748047 L 47.171875 28.693359 A 1.0001 1.0001 0 0 0 47.998047 27.707031 L 47.998047 22.207031 A 1.0001 1.0001 0 0 0 47.160156 21.220703 L 41.152344 20.238281 C 40.80968 19.078827 40.350281 17.974723 39.78125 16.931641 L 43.289062 11.933594 A 1.0001 1.0001 0 0 0 43.177734 10.652344 L 39.287109 6.7636719 A 1.0001 1.0001 0 0 0 37.996094 6.6601562 L 33.072266 10.201172 C 32.023186 9.6248101 30.909713 9.1579916 29.738281 8.8125 L 28.691406 2.828125 A 1.0001 1.0001 0 0 0 27.705078 2 L 22.205078 2 z M 23.056641 4 L 26.865234 4 L 27.861328 9.6855469 A 1.0001 1.0001 0 0 0 28.603516 10.484375 C 30.066026 10.848832 31.439607 11.426549 32.693359 12.185547 A 1.0001 1.0001 0 0 0 33.794922 12.142578 L 38.474609 8.7792969 L 41.167969 11.472656 L 37.835938 16.220703 A 1.0001 1.0001 0 0 0 37.796875 17.310547 C 38.548366 18.561471 39.118333 19.926379 39.482422 21.380859 A 1.0001 1.0001 0 0 0 40.291016 22.125 L 45.998047 23.058594 L 45.998047 26.867188 L 40.279297 27.871094 A 1.0001 1.0001 0 0 0 39.482422 28.617188 C 39.122545 30.069817 38.552234 31.434687 37.800781 32.685547 A 1.0001 1.0001 0 0 0 37.845703 33.785156 L 41.224609 38.474609 L 38.53125 41.169922 L 33.791016 37.84375 A 1.0001 1.0001 0 0 0 32.697266 37.808594 C 31.44975 38.567585 30.074755 39.148028 28.617188 39.517578 A 1.0001 1.0001 0 0 0 27.876953 40.3125 L 26.867188 46 L 23.052734 46 L 22.111328 40.337891 A 1.0001 1.0001 0 0 0 21.365234 39.53125 C 19.90185 39.170557 18.522094 38.59371 17.259766 37.835938 A 1.0001 1.0001 0 0 0 16.171875 37.875 L 11.46875 41.169922 L 8.7734375 38.470703 L 12.097656 33.824219 A 1.0001 1.0001 0 0 0 12.138672 32.724609 C 11.372652 31.458855 10.793319 30.079213 10.427734 28.609375 A 1.0001 1.0001 0 0 0 9.6328125 27.867188 L 4.0019531 26.867188 L 4.0019531 23.052734 L 9.6289062 22.117188 A 1.0001 1.0001 0 0 0 10.435547 21.373047 C 10.804273 19.898143 11.383325 18.518729 12.146484 17.255859 A 1.0001 1.0001 0 0 0 12.111328 16.164062 L 8.8261719 11.46875 L 11.523438 8.7734375 L 16.185547 12.105469 A 1.0001 1.0001 0 0 0 17.28125 12.148438 C 18.536908 11.394293 19.919867 10.822081 21.384766 10.462891 A 1.0001 1.0001 0 0 0 22.132812 9.6523438 L 23.056641 4 z M 25 17 C 20.593567 17 17 20.593567 17 25 C 17 29.406433 20.593567 33 25 33 C 29.406433 33 33 29.406433 33 25 C 33 20.593567 29.406433 17 25 17 z M 25 19 C 28.325553 19 31 21.674447 31 25 C 31 28.325553 28.325553 31 25 31 C 21.674447 31 19 28.325553 19 25 C 19 21.674447 21.674447 19 25 19 z"/>
</symbol>

</svg>





