<svg xmlns="http://www.w3.org/2000/svg" style="display: none;">

    <symbol id="icon-logo" viewBox="0 0 50 50">
      <path d="M 50.0625 10.4375 C 48.214844 11.257813 46.234375 11.808594 44.152344 12.058594 C 46.277344 10.785156 47.910156 8.769531 48.675781 6.371094 C 46.691406 7.546875 44.484375 8.402344 42.144531 8.863281 C 40.269531 6.863281 37.597656 5.617188 34.640625 5.617188 C 28.960938 5.617188 24.355469 10.21875 24.355469 15.898438 C 24.355469 16.703125 24.449219 17.488281 24.625 18.242188 C 16.078125 17.8125 8.503906 13.71875 3.429688 7.496094 C 2.542969 9.019531 2.039063 10.785156 2.039063 12.667969 C 2.039063 16.234375 3.851563 19.382813 6.613281 21.230469 C 4.925781 21.175781 3.339844 20.710938 1.953125 19.941406 C 1.953125 19.984375 1.953125 20.027344 1.953125 20.070313 C 1.953125 25.054688 5.5 29.207031 10.199219 30.15625 C 9.339844 30.390625 8.429688 30.515625 7.492188 30.515625 C 6.828125 30.515625 6.183594 30.453125 5.554688 30.328125 C 6.867188 34.410156 10.664063 37.390625 15.160156 37.472656 C 11.644531 40.230469 7.210938 41.871094 2.390625 41.871094 C 1.558594 41.871094 0.742188 41.824219 -0.0585938 41.726563 C 4.488281 44.648438 9.894531 46.347656 15.703125 46.347656 C 34.617188 46.347656 44.960938 30.679688 44.960938 17.09375 C 44.960938 16.648438 44.949219 16.199219 44.933594 15.761719 C 46.941406 14.3125 48.683594 12.5 50.0625 10.4375 Z"/>
    </symbol>

    <symbol id="icon-home" viewBox="0 0 50 50">
     <path d="M 24.962891 1.0546875 A 1.0001 1.0001 0 0 0 24.384766 1.2636719 L 1.3847656 19.210938 A 1.0005659 1.0005659 0 0 0 2.6152344 20.789062 L 4 19.708984 L 4 46 A 1.0001 1.0001 0 0 0 5 47 L 18.832031 47 A 1.0001 1.0001 0 0 0 19.158203 47 L 30.832031 47 A 1.0001 1.0001 0 0 0 31.158203 47 L 45 47 A 1.0001 1.0001 0 0 0 46 46 L 46 19.708984 L 47.384766 20.789062 A 1.0005657 1.0005657 0 1 0 48.615234 19.210938 L 41 13.269531 L 41 6 L 35 6 L 35 8.5859375 L 25.615234 1.2636719 A 1.0001 1.0001 0 0 0 24.962891 1.0546875 z M 25 3.3222656 L 44 18.148438 L 44 45 L 32 45 L 32 26 L 18 26 L 18 45 L 6 45 L 6 18.148438 L 25 3.3222656 z M 37 8 L 39 8 L 39 11.708984 L 37 10.146484 L 37 8 z M 20 28 L 30 28 L 30 45 L 20 45 L 20 28 z"/>
       </symbol>

    <symbol id="icon-explore" viewBox="0 0 490 490">
   <path d="M64.333,490h58.401l33.878-137.69h122.259L245.39,490h58.401l33.878-137.69h119.92v-48.162h-108.24l29.2-117.324h79.04
	v-48.162H390.23L424.108,0H365.31l-33.878,138.661H208.79L242.668,0h-58.415l-33.864,138.661H32.411v48.162h106.298l-28.818,117.324
	h-77.48v48.162h65.8L64.333,490z M197.11,186.824h122.642l-29.2,117.324H168.292L197.11,186.824z"/>         
    </symbol>


    <symbol id="icon-notifications" viewBox="0 0 331.783 331.783">
 <path d="M309.28,215.116h-29.872v-80.847c0-41.648-27.425-77.007-65.162-88.979C213.534,20.198,192.914,0,167.652,0h-0.791
		c-24.983,0-45.436,19.753-46.572,44.46c-39.15,11.092-67.915,47.154-67.915,89.809v80.847H22.503v76.667h96.486
		c3.607,22.64,23.263,40,46.902,40s43.295-17.36,46.902-40h96.486v-76.667H309.28z M166.861,15h0.791
		c15.809,0,28.946,11.659,31.264,26.83c-4.197-0.58-8.481-0.887-12.835-0.887H145.7c-3.392,0-6.742,0.187-10.041,0.542
		C138.123,26.484,151.173,15,166.861,15z M165.891,316.782c-15.339,0-28.221-10.685-31.617-25h63.234
		C194.112,306.097,181.23,316.782,165.891,316.782z M294.28,276.782H37.503v-46.667h29.872v-95.847
		c0-43.189,35.137-78.326,78.326-78.326h40.381c43.189,0,78.326,35.137,78.326,78.326v95.847h29.872V276.782z"/>
    </symbol>

 <symbol id="icon-messages" viewBox="0 0 50.215 50.215">
    <path d="M25.108,0C11.357,0,0.171,9.396,0.171,20.946c0,6.226,3.339,12.146,9.01,16.104c-0.18,3.082-2.679,7.061-3.664,8.358
		c-0.686,0.903-0.803,2.121-0.301,3.14c0.506,1.02,1.545,1.666,2.683,1.666c6.839,0,14.323-5.353,17.957-8.33
		c13.403-0.334,24.188-9.599,24.188-20.938C50.044,9.396,38.858,0,25.108,0z M25.12,35.906h-0.003
		c-0.82-0.057-1.662,0.168-2.291,0.707c-2.559,2.191-5.783,4.473-8.912,5.96c0.938-2.38,1.565-5.128,1.1-7.738
		c-0.15-0.846-0.659-1.587-1.395-2.032c-4.742-2.877-7.463-7.199-7.463-11.856c0-8.249,8.502-14.961,18.952-14.961
		c10.449,0,18.951,6.712,18.951,14.961S35.56,35.906,25.12,35.906z"/>
</symbol>

<symbol id="icon-bookmark" viewBox="0 0 512 512">
<path d="M62.061,0v512h48.427L256,366.488L401.512,512h48.427V0H62.061z M403.394,448.057L256,300.663L108.606,448.057V46.545
			h294.788V448.057z"/>
</symbol>

<symbol id="icon-list" viewBox="0 0 492.308 492.308">
<path d="M358.188,85.644V46.269h-56.74C296.779,20.01,273.784,0,246.197,0c-27.582,0-50.577,20.01-55.245,46.269h-56.745v39.375
			H43.63v406.663h405.048V85.644H358.188z M153.899,85.644V65.962h55.88v-9.846c0-20.087,16.337-36.423,36.418-36.423
			s36.423,16.337,36.423,36.423v9.846h55.875v19.683v40.74H153.899V85.644z M428.986,472.615H63.322V105.337h70.885v40.74h223.981
			v-40.74h70.798V472.615z"/>
</symbol>

<symbol id="icon-profile" viewBox="0 0 45.916 45.916">
<path d="M30.061,18.237c2.127-1.916,3.476-4.683,3.476-7.772C33.536,4.684,28.85,0,23.07,0C17.29,0,12.604,4.685,12.604,10.465
			c0,3.085,1.343,5.85,3.467,7.766c-5.441,0.422-9.74,4.928-9.779,10.477L6.224,40.154c-0.01,1.525,0.59,2.99,1.665,4.072
			c1.075,1.08,2.537,1.689,4.062,1.689h10.151h11.794c3.15,0,5.709-2.543,5.729-5.693l0.068-11.361
			c0.021-2.826-1.089-5.538-3.083-7.544C34.851,19.543,32.526,18.465,30.061,18.237z"/>

</symbol>

<symbol id="icon-more" viewBox="0 0 330 330">
<path id="XMLID_22_" d="M165,0C74.019,0,0,74.019,0,165s74.019,165,165,165s165-74.019,165-165S255.981,0,165,0z M85,190
	c-13.785,0-25-11.215-25-25s11.215-25,25-25s25,11.215,25,25S98.785,190,85,190z M165,190c-13.785,0-25-11.215-25-25
	s11.215-25,25-25s25,11.215,25,25S178.785,190,165,190z M245,190c-13.785,0-25-11.215-25-25s11.215-25,25-25
	c13.785,0,25,11.215,25,25S258.785,190,245,190z"/>
</symbol>


<symbol id="icon-top"  viewBox="0 0 48 48">
<path d="M 23.976562 3.9785156 A 1.50015 1.50015 0 0 0 22.5 5.5 L 22.5 8.5 A 1.50015 1.50015 0 1 0 25.5 8.5 L 25.5 5.5 A 1.50015 1.50015 0 0 0 23.976562 3.9785156 z M 10.902344 9.4042969 A 1.50015 1.50015 0 0 0 9.8574219 11.980469 L 11.978516 14.101562 A 1.5012202 1.5012202 0 0 0 14.101562 11.978516 L 11.980469 9.8574219 A 1.50015 1.50015 0 0 0 10.902344 9.4042969 z M 37.050781 9.4042969 A 1.50015 1.50015 0 0 0 36.019531 9.8574219 L 33.898438 11.978516 A 1.5012202 1.5012202 0 0 0 36.021484 14.101562 L 38.142578 11.980469 A 1.50015 1.50015 0 0 0 37.050781 9.4042969 z M 24 13 C 17.942632 13 13 17.942636 13 24 C 13 30.057364 17.942632 35 24 35 C 30.057368 35 35 30.057364 35 24 C 35 17.942636 30.057368 13 24 13 z M 24 16 C 28.436049 16 32 19.563954 32 24 C 32 28.436046 28.436049 32 24 32 C 19.563951 32 16 28.436046 16 24 C 16 19.563954 19.563951 16 24 16 z M 5.5 22.5 A 1.50015 1.50015 0 1 0 5.5 25.5 L 8.5 25.5 A 1.50015 1.50015 0 1 0 8.5 22.5 L 5.5 22.5 z M 39.5 22.5 A 1.50015 1.50015 0 1 0 39.5 25.5 L 42.5 25.5 A 1.50015 1.50015 0 1 0 42.5 22.5 L 39.5 22.5 z M 13.009766 33.445312 A 1.50015 1.50015 0 0 0 11.978516 33.898438 L 9.8574219 36.019531 A 1.501221 1.501221 0 1 0 11.980469 38.142578 L 14.101562 36.021484 A 1.50015 1.50015 0 0 0 13.009766 33.445312 z M 34.943359 33.445312 A 1.50015 1.50015 0 0 0 33.898438 36.021484 L 36.019531 38.142578 A 1.5012209 1.5012209 0 1 0 38.142578 36.019531 L 36.021484 33.898438 A 1.50015 1.50015 0 0 0 34.943359 33.445312 z M 23.976562 37.978516 A 1.50015 1.50015 0 0 0 22.5 39.5 L 22.5 42.5 A 1.50015 1.50015 0 1 0 25.5 42.5 L 25.5 39.5 A 1.50015 1.50015 0 0 0 23.976562 37.978516 z"/>    
</symbol>
</svg>





